# xmcd CD database file
#
# Track frame offsets:
#	150
#	33792
#	66732
#	93687
#	121961
#	149140
#	171467
#	196281
#	231681
#	261736
#
# Disc length: 3885 seconds
#
# Revision: 2
# Processed by: cddbd v1.5.2PL0 Copyright (c) Steve Scherf et al.
# Submitted via: CDex 1.51
#
DISCID=ab0f2b0a
DTITLE=John Coltrane - Blue Train  [CD 06-10]
DYEAR=1900
DGENRE=Jazz
TTITLE0=Time Was
TTITLE1=Slowtrane
TTITLE2=I Hear A Rhapsody
TTITLE3=Violets For Your Furs
TTITLE4=Trane's Slo Blues
TTITLE5=Like Someone In Love
TTITLE6=I Love You
TTITLE7=Monk's Mood
TTITLE8=Trinkle, Tinkle
TTITLE9=Nutty
EXTD=
EXTT0=
EXTT1=
EXTT2=
EXTT3=
EXTT4=
EXTT5=
EXTT6=
EXTT7=
EXTT8=
EXTT9=
PLAYORDER=
